<svg xmlns="http://www.w3.org/2000/svg" version="1.1" xmlns:xlink="http://www.w3.org/1999/xlink" xmlns:svgjs="http://svgjs.dev/svgjs" width="1000" height="1125" viewBox="0 0 1000 1125"><g transform="matrix(1,0,0,1,1.7053025658242404e-13,0)"><svg viewBox="0 0 320 360" data-background-color="#010c80" preserveAspectRatio="xMidYMid meet" height="1125" width="1000" xmlns="http://www.w3.org/2000/svg" xmlns:xlink="http://www.w3.org/1999/xlink"><g id="tight-bounds" transform="matrix(1,0,0,1,0,0)"><svg viewBox="0 0 320 360" height="360" width="320"><g><svg></svg></g><g><svg viewBox="0 0 320 360" height="360" width="320"><g><path xmlns="http://www.w3.org/2000/svg" d="M20.961 227.22l3.726 4.658-1.863-6.056c-0.466-2.795-3.726 0.466-1.863 1.398M25.153 224.425c1.397 2.329 2.795 4.658 2.795 6.987 0 3.261 2.795 4.658 5.123 5.589-3.261-3.726-5.124-13.974-7.918-12.576M204.017 26.929c7.918 0 15.371-0.932 23.756 0.931 20.495 5.124 37.729 15.371 49.374 29.811l32.606 52.169c1.397 13.042 4.192 27.482 3.726 43.319 3.261 0 2.795-4.658 6.521-5.59-3.726 9.316-5.59 20.961-6.521 34.469-2.329-7.453 0-18.632 0.466-24.687-3.261 5.124-5.124 1.397-5.124-0.932 0.466-3.726-1.397-3.261-2.795-4.658-5.124-4.658-8.384-9.782-12.11-17.7 2.329-6.055 2.795-14.905-4.658-19.563-2.329-1.397-5.124-3.726-6.521-7.453-1.863-5.124-5.124-11.179-4.193-19.097 0.466-2.329-6.987 5.124-11.179 1.863-18.166-12.576-36.332-27.016-58.224-39.127-11.645 0-20.029-4.192-24.221-9.316-3.726-4.658-0.932-10.713 4.658-11.179 3.261 0 6.987-0.932 9.782 0.932 0.466-1.863 2.329-4.192 4.657-4.192M157.904 16.215l0.932 0.466c4.658 0.932 6.987 7.453 12.11 5.124 0 3.261 0.466 6.521-0.466 8.85-1.397 3.726-5.59 3.726-8.85 3.726-31.208-1.863-49.374 11.179-68.471 22.358-5.124 3.261-10.713 5.59-14.906 9.782-20.029 18.632-41.921 35.866-47.045 70.335l-4.192 38.195c-0.466 4.192-5.124 8.384-4.192 13.508l3.26 22.824c-3.261-3.261-5.124 0.932-4.192 2.795 0.466 1.397 2.329 6.055 5.124 1.863 3.726 6.987 7.453 20.495 12.576 26.55 15.837 18.632 36.332 35.4 53.101 52.169 4.192-0.932 7.453-0.932 8.384-3.727 1.397 2.795-1.397 5.59-3.726 6.056 7.453 4.658 15.837 8.85 27.016 9.781 14.44 0.932 27.948 3.261 40.524 6.522 6.521-1.863 13.042-2.795 20.029-3.261 2.329 0 3.726-3.726 6.521-4.658l0.466-4.658c2.795 4.192 2.329-1.397 0.466-4.192 3.261 2.795 4.192 5.124 5.589 6.987 0-1.397 3.726-6.521 3.727-0.466l0.931-6.055c1.397-0.932 1.863 5.124 3.261 0.931 1.397-4.192 4.192-0.932 6.987-2.329-0.932 1.863-0.466 5.59 2.794 3.261l3.727-3.261c2.329 5.59 6.055 3.261 7.918 2.329 20.495-13.042 40.99-28.413 60.553-43.784l-0.466 6.055 2.329-7.453c2.329 2.329 4.192 0.466 5.124-0.931 2.795-4.658 6.521-9.316 12.577-13.508-7.453 20.029-16.303 35.866-27.482 48.908l-4.658 5.59c0 3.261-0.932 7.453-4.658 7.918-1.863 0.466-5.59-0.932-8.384 1.863-1.397 1.863 3.261 5.59-0.466 2.795-3.261-2.329-6.521 0-10.248 0.932-2.795 0.932 1.863 3.726 2.795 5.589 0.932 1.863 1.863 3.726 1.398 6.056l-5.124-5.59c-6.055 3.261-9.782 9.316-14.906 13.974-2.329 1.863-1.397 5.124-1.397 7.918-3.261 0-6.987-0.932-8.85 0.932-1.397 1.863-0.932 4.658-0.932 7.453-4.658-0.466-5.124-7.453-9.315-6.056-4.192 0.932-8.85 1.397-12.577 3.727 2.795 5.59-4.658 2.329-3.726 3.26-6.987-4.192-13.042-7.453-20.495-4.658-15.837-5.124-35.4-2.795-49.84-0.931 0-2.329 0.466-4.658-0.466-5.124-0.932 2.329-3.726 1.397-3.26 1.397-8.85-6.055-17.7-9.782-27.016-14.905-8.384 0.932-16.303-3.261-18.632-5.59-6.521-6.055-13.974-2.795-20.029-4.192-13.042-3.261-17.7-16.769-19.098-26.084-0.932-4.658-4.658-6.521-6.055-6.056-6.055-19.563-15.371-37.263-22.824-55.429-1.863-4.658-1.397-9.316-1.397-14.44 2.329 0.932 4.658 0.466 4.192-2.794-2.329-15.371-7.918-27.016-13.974-38.195 3.261-15.837 3.726-34.469 11.179-48.443 6.521-12.576 18.632-19.098 27.016-29.811 2.795-3.726 2.795-8.85 5.59-12.11 9.316-9.316 18.632-19.098 28.879-27.482 4.658-3.726 10.247 0 17.234-1.397 2.329-8.384 11.645-15.837 20.495-13.508 3.726 0.932 11.179-8.85 13.508-9.782 3.726-1.397 1.863 3.726 1.863 6.987 8.85-6.987 20.961-10.713 32.14-14.906" fill="#f8fafc" fill-rule="nonzero" stroke="none" stroke-width="1" stroke-linecap="butt" stroke-linejoin="miter" stroke-miterlimit="10" stroke-dasharray="" stroke-dashoffset="0" font-family="none" font-weight="none" font-size="none" text-anchor="none" style="mix-blend-mode: normal" data-fill-palette-color="tertiary"></path></g><g transform="matrix(1,0,0,1,64,132.23880597014926)"><svg viewBox="0 0 192 95.52238805970148" height="95.52238805970148" width="192"><g><svg viewBox="0 0 192 95.52238805970148" height="95.52238805970148" width="192"><g><svg viewBox="0 0 192 95.52238805970148" height="95.52238805970148" width="192"><g><svg viewBox="0 0 192 95.52238805970148" height="95.52238805970148" width="192"><g id="textblocktransform"><svg viewBox="0 0 192 95.52238805970148" height="95.52238805970148" width="192" id="textblock"><g><svg viewBox="0 0 192 95.52238805970148" height="95.52238805970148" width="192"><g transform="matrix(1,0,0,1,0,0)"><svg width="192" viewBox="3.25 -37.5 100.48999786376953 50" height="95.52238805970148" data-palette-color="#f8fafc"><path d="M28.75-3.4L31.55-3.4 31.55 0 21.65 0 21.65-3.4 24.35-3.4 15.8-17.15 10.5-13.9 10.5-3.4 13.75-3.4 13.75 0 3.25 0 3.25-3.4 6.4-3.4 6.4-34.1 3.25-34.1 3.25-37.5 21.1-37.5Q24.4-37.5 25.55-36.23 26.7-34.95 26.7-31.25L26.7-31.25 26.7-28.15Q26.7-26.25 26.35-25.15 26-24.05 25.1-23.18 24.2-22.3 22.7-21.4 21.2-20.5 18.9-19.1L18.9-19.1 28.75-3.4ZM10.5-34.1L10.5-17.9 23.05-25.65 23.05-34.1 10.5-34.1ZM42.05-25L42.05-3.4 45.3-3.4 45.3 0 34.8 0 34.8-3.4 37.95-3.4 37.95-21.6 34.8-21.6 34.8-25 42.05-25ZM40-34.2Q41.05-34.2 41.77-33.43 42.5-32.65 42.5-31.58 42.5-30.5 41.77-29.78 41.05-29.05 39.97-29.05 38.9-29.05 38.17-29.78 37.45-30.5 37.45-31.58 37.45-32.65 38.2-33.43 38.95-34.2 40-34.2ZM61.25-21.4L57.2-21.4 57.2-3.4 61.25-3.4 61.25 0 49.3 0 49.3-3.4 53.3-3.4 53.3-21.4 49.3-21.4 49.3-25 53.3-25 53.3-32.3Q53.3-35.15 54.4-36.33 55.5-37.5 57.75-37.5L57.75-37.5 61.9-37.5 61.9-34.1 57.2-34.1 57.2-25 61.25-25 61.25-21.4ZM70.39-21.6L70.39-2.9 80.99-9.6 80.99-21.6 70.39-21.6ZM77.84 12.5L77.84 9.1 80.99 9.1 80.99-5.55 72.49-0.2Q71.39 0.5 69.92 0.5 68.44 0.5 67.42-0.6 66.39-1.7 66.39-3.8L66.39-3.8 66.39-20.6Q66.39-22.65 67.04-23.5L67.04-23.5Q68.24-25 70.69-25L70.69-25 88.24-25 88.24-21.6 85.09-21.6 85.09 9.1 88.24 9.1 88.24 12.5 77.84 12.5ZM100.49-25L100.49-3.4 103.74-3.4 103.74 0 93.24 0 93.24-3.4 96.39-3.4 96.39-21.6 93.24-21.6 93.24-25 100.49-25ZM98.44-34.2Q99.49-34.2 100.22-33.43 100.94-32.65 100.94-31.58 100.94-30.5 100.22-29.78 99.49-29.05 98.42-29.05 97.34-29.05 96.62-29.78 95.89-30.5 95.89-31.58 95.89-32.65 96.64-33.43 97.39-34.2 98.44-34.2Z" opacity="1" transform="matrix(1,0,0,1,0,0)" fill="#f8fafc" class="undefined-text-0" data-fill-palette-color="primary" id="text-0"></path></svg></g></svg></g></svg></g></svg></g><g></g></svg></g></svg></g></svg></g></svg></g><defs></defs></svg><rect width="320" height="360" fill="none" stroke="none" visibility="hidden"></rect></g></svg></g></svg>